<svg xmlns="http://www.w3.org/2000/svg" xmlns:xlink="http://www.w3.org/1999/xlink" version="1.1" width="256" height="256" viewBox="0 0 256 256" xml:space="preserve">

<defs>
</defs>
<g style="stroke: none; stroke-width: 0; stroke-dasharray: none; stroke-linecap: butt; stroke-linejoin: miter; stroke-miterlimit: 10; fill: none; fill-rule: nonzero; opacity: 1;" transform="translate(1.4065934065934016 1.4065934065934016) scale(2.81 2.81)" >
	<path d="M 60.203 41.591 c -0.046 -0.139 -0.175 -0.233 -0.321 -0.233 H 48.892 l -3.572 -10.626 c -0.046 -0.138 -0.175 -0.23 -0.321 -0.23 s -0.274 0.093 -0.321 0.23 l -3.572 10.626 H 30.119 c -0.146 0 -0.276 0.094 -0.321 0.233 c -0.046 0.139 0.003 0.291 0.121 0.378 l 8.877 6.532 l -3.382 10.556 c -0.044 0.138 0.005 0.29 0.122 0.376 c 0.118 0.087 0.276 0.088 0.395 0.004 L 45 53.048 l 9.07 6.388 c 0.058 0.041 0.127 0.062 0.195 0.062 c 0.07 0 0.141 -0.022 0.2 -0.066 c 0.117 -0.086 0.166 -0.237 0.122 -0.376 l -3.382 -10.556 l 8.877 -6.532 C 60.199 41.882 60.248 41.73 60.203 41.591 z" style="stroke: none; stroke-width: 1; stroke-dasharray: none; stroke-linecap: butt; stroke-linejoin: miter; stroke-miterlimit: 10; fill: rgb(0,0,0); fill-rule: nonzero; opacity: 1;" transform=" matrix(1 0 0 1 0 0) " stroke-linecap="round" />
	<path d="M 68.761 59.66 c -0.101 0 -0.201 -0.03 -0.288 -0.091 l -8.977 -6.323 l -2.433 1.714 c -0.226 0.158 -0.537 0.104 -0.697 -0.121 c -0.158 -0.226 -0.104 -0.538 0.121 -0.697 l 2.721 -1.916 c 0.174 -0.121 0.402 -0.121 0.576 0 l 8.046 5.667 l -3.002 -9.367 c -0.065 -0.204 0.007 -0.428 0.181 -0.555 l 7.845 -5.774 h -9.709 c -0.215 0 -0.405 -0.137 -0.474 -0.341 l -3.175 -9.446 l -2.321 6.904 c -0.088 0.262 -0.37 0.404 -0.633 0.315 c -0.262 -0.088 -0.402 -0.372 -0.314 -0.633 l 2.795 -8.314 c 0.068 -0.204 0.259 -0.341 0.474 -0.341 l 0 0 c 0.215 0 0.405 0.137 0.474 0.341 l 3.534 10.516 h 10.873 c 0.216 0 0.407 0.139 0.475 0.344 c 0.067 0.205 -0.004 0.43 -0.179 0.559 l -8.782 6.463 l 3.347 10.445 c 0.065 0.204 -0.008 0.428 -0.181 0.556 C 68.969 59.628 68.865 59.66 68.761 59.66 z" style="stroke: none; stroke-width: 1; stroke-dasharray: none; stroke-linecap: butt; stroke-linejoin: miter; stroke-miterlimit: 10; fill: rgb(0,0,0); fill-rule: nonzero; opacity: 1;" transform=" matrix(1 0 0 1 0 0) " stroke-linecap="round" />
	<path d="M 21.239 59.66 c -0.104 0 -0.208 -0.032 -0.296 -0.097 c -0.173 -0.128 -0.246 -0.352 -0.18 -0.556 l 3.346 -10.445 L 15.327 42.1 c -0.174 -0.128 -0.246 -0.354 -0.179 -0.559 c 0.067 -0.206 0.259 -0.344 0.475 -0.344 h 10.873 l 3.534 -10.516 c 0.137 -0.407 0.812 -0.407 0.948 0 l 2.794 8.314 c 0.088 0.262 -0.053 0.545 -0.315 0.633 c -0.262 0.088 -0.545 -0.053 -0.633 -0.315 l -2.32 -6.904 l -3.175 9.446 c -0.068 0.204 -0.259 0.341 -0.474 0.341 h -9.709 l 7.846 5.774 c 0.173 0.127 0.245 0.351 0.18 0.555 l -3.001 9.367 l 8.046 -5.667 c 0.173 -0.121 0.403 -0.121 0.576 0 l 2.991 2.106 c 0.226 0.159 0.28 0.472 0.121 0.697 c -0.158 0.225 -0.47 0.279 -0.697 0.121 l -2.703 -1.904 l -8.977 6.323 C 21.441 59.63 21.34 59.66 21.239 59.66 z" style="stroke: none; stroke-width: 1; stroke-dasharray: none; stroke-linecap: butt; stroke-linejoin: miter; stroke-miterlimit: 10; fill: rgb(0,0,0); fill-rule: nonzero; opacity: 1;" transform=" matrix(1 0 0 1 0 0) " stroke-linecap="round" />
	<path d="M 71.824 39.655 c -0.053 0 -0.106 -0.008 -0.159 -0.026 c -0.262 -0.088 -0.402 -0.372 -0.314 -0.633 l 2.795 -8.314 c 0.088 -0.261 0.373 -0.4 0.633 -0.315 c 0.262 0.088 0.402 0.372 0.314 0.633 l -2.795 8.314 C 72.228 39.523 72.033 39.655 71.824 39.655 z" style="stroke: none; stroke-width: 1; stroke-dasharray: none; stroke-linecap: butt; stroke-linejoin: miter; stroke-miterlimit: 10; fill: rgb(0,0,0); fill-rule: nonzero; opacity: 1;" transform=" matrix(1 0 0 1 0 0) " stroke-linecap="round" />
	<path d="M 83.884 59.66 c -0.101 0 -0.201 -0.03 -0.288 -0.091 l -8.977 -6.323 l -2.433 1.714 c -0.228 0.159 -0.537 0.104 -0.697 -0.121 c -0.158 -0.226 -0.104 -0.538 0.121 -0.697 l 2.721 -1.916 c 0.174 -0.121 0.402 -0.121 0.576 0 l 8.046 5.667 l -3.002 -9.367 c -0.065 -0.204 0.007 -0.428 0.181 -0.555 l 7.845 -5.774 h -9.709 c -0.215 0 -0.405 -0.137 -0.474 -0.341 L 74.146 31 c -0.088 -0.262 0.053 -0.545 0.314 -0.633 c 0.262 -0.086 0.545 0.054 0.633 0.315 l 3.534 10.516 H 89.5 c 0.216 0 0.407 0.139 0.475 0.344 c 0.067 0.205 -0.004 0.43 -0.179 0.559 l -8.782 6.463 l 3.347 10.445 c 0.065 0.204 -0.008 0.428 -0.181 0.556 C 84.092 59.628 83.988 59.66 83.884 59.66 z" style="stroke: none; stroke-width: 1; stroke-dasharray: none; stroke-linecap: butt; stroke-linejoin: miter; stroke-miterlimit: 10; fill: rgb(0,0,0); fill-rule: nonzero; opacity: 1;" transform=" matrix(1 0 0 1 0 0) " stroke-linecap="round" />
	<path d="M 18.176 39.655 c -0.209 0 -0.404 -0.132 -0.474 -0.341 L 14.907 31 c -0.088 -0.262 0.053 -0.545 0.315 -0.633 c 0.262 -0.086 0.545 0.054 0.633 0.315 l 2.794 8.314 c 0.088 0.262 -0.053 0.545 -0.315 0.633 C 18.282 39.646 18.229 39.655 18.176 39.655 z" style="stroke: none; stroke-width: 1; stroke-dasharray: none; stroke-linecap: butt; stroke-linejoin: miter; stroke-miterlimit: 10; fill: rgb(0,0,0); fill-rule: nonzero; opacity: 1;" transform=" matrix(1 0 0 1 0 0) " stroke-linecap="round" />
	<path d="M 6.116 59.66 c -0.104 0 -0.208 -0.032 -0.296 -0.097 c -0.173 -0.128 -0.246 -0.352 -0.18 -0.556 l 3.346 -10.445 L 0.204 42.1 c -0.174 -0.128 -0.246 -0.354 -0.179 -0.559 c 0.067 -0.206 0.259 -0.344 0.475 -0.344 h 10.873 l 3.534 -10.516 c 0.088 -0.261 0.374 -0.4 0.633 -0.315 c 0.262 0.088 0.403 0.372 0.315 0.633 l -3.649 10.856 c -0.068 0.204 -0.259 0.341 -0.474 0.341 H 2.023 l 7.846 5.774 c 0.173 0.127 0.245 0.351 0.18 0.555 l -3.001 9.367 l 8.046 -5.667 c 0.173 -0.121 0.403 -0.121 0.576 0 l 2.72 1.916 c 0.226 0.159 0.28 0.472 0.121 0.697 c -0.158 0.225 -0.47 0.28 -0.697 0.121 l -2.432 -1.714 l -8.977 6.323 C 6.318 59.63 6.217 59.66 6.116 59.66 z" style="stroke: none; stroke-width: 1; stroke-dasharray: none; stroke-linecap: butt; stroke-linejoin: miter; stroke-miterlimit: 10; fill: rgb(0,0,0); fill-rule: nonzero; opacity: 1;" transform=" matrix(1 0 0 1 0 0) " stroke-linecap="round" />
</g>
</svg>